<?xml version="1.0" encoding="UTF-8" standalone="no"?><svg xmlns="http://www.w3.org/2000/svg" xmlns:xlink="http://www.w3.org/1999/xlink" style="isolation:isolate" viewBox="0 0 16 16" width="16pt" height="16pt"><path d=" M 5.164 7.329 Q 3.597 7.693 3.409 6.396 C 3.295 5.609 2.958 4.747 2.496 4.103 C 2.02 3.441 1.412 3.009 0.776 3.129 C 0.75 3.134 0.763 3.171 0.873 3.209 C 1.893 3.604 2.396 4.416 2.265 5.695 C 2.046 7.842 2.784 10.347 4.55 9.639 C 4.581 9.627 4.613 9.614 4.644 9.601 Q 3.398 10.635 3.536 11.964 Q 3.709 13.621 2.769 14.227 Q 2.418 14.589 2.98 14.547 C 3.543 14.505 4.398 13.194 4.407 12.231 Q 4.411 11.756 4.989 11.315 C 4.343 12.922 4.951 15.167 5.471 15.769 C 6.053 16.442 5.753 15.469 5.692 15.083 C 5.63 14.697 5.663 12.029 6.868 11.285 C 6.887 11.274 6.905 11.262 6.923 11.25 Q 6.922 11.254 6.921 11.257 Q 6.967 11.233 7.014 11.212 Q 6.917 11.917 7.376 12.447 C 8.222 13.425 7.986 14.374 7.679 14.82 C 7.373 15.266 7.655 15.481 8.246 14.864 C 8.837 14.247 9.209 12.789 8.586 12.184 C 8.331 11.936 8.479 11.537 8.812 11.131 L 8.812 11.131 Q 8.896 11.167 8.979 11.209 L 8.979 11.209 C 9.016 11.235 9.054 11.261 9.094 11.285 C 10.299 12.029 10.331 14.697 10.27 15.082 C 10.208 15.468 9.908 16.442 10.49 15.768 C 11.004 15.174 11.603 12.975 10.995 11.373 Q 12.034 11.949 12.04 12.587 C 12.049 13.55 12.904 14.861 13.466 14.903 Q 14.029 14.945 13.677 14.583 Q 12.738 13.977 12.91 12.32 Q 13.077 10.726 11.252 9.557 L 11.252 9.557 C 11.317 9.585 11.384 9.613 11.45 9.639 C 13.216 10.347 13.954 7.842 13.735 5.695 C 13.604 4.416 14.107 3.604 15.127 3.209 C 15.237 3.171 15.25 3.134 15.224 3.129 C 14.588 3.009 13.98 3.441 13.504 4.103 C 13.042 4.747 12.705 5.609 12.591 6.396 Q 12.407 7.665 10.903 7.344 Q 12.351 3.212 11.372 1.475 C 10.273 -0.474 6.129 -0.51 4.757 1.475 Q 3.537 3.24 5.164 7.329 L 5.164 7.329 Z " fill="#000000"/></svg>