<svg xmlns="http://www.w3.org/2000/svg" style="isolation:isolate" viewBox="553.184 498 171.15 220.804" width="228.2" height="294.405"><linearGradient id="a" x1=".158" y1=".147" x2=".887" y2=".876" gradientTransform="matrix(149.853 0 0 159.901 560 498.099)" gradientUnits="userSpaceOnUse"><stop offset="0%"/><stop offset="100%" stop-color="#fff"/></linearGradient><path d="M639.865 617.1c35.397 48.255 70.039-13.469 69.988-50.587-.06-43.886-44.541-68.414-70.017-68.414-40.893 0-79.836 33.796-79.836 80.036C560 629.531 604.64 658 639.836 658c-7.965-1.147-34.507-6.834-34.863-67.967-.24-41.346 13.487-57.865 34.805-50.599.477.177 23.514 9.265 23.514 38.951 0 29.56-23.427 38.715-23.427 38.715z" fill-rule="evenodd" fill="url(#a)"/><linearGradient id="b" x1=".821" y1=".852" x2=".039" y2=".07" gradientTransform="matrix(132.22 0 0 160 587.78 498)" gradientUnits="userSpaceOnUse"><stop offset="0%"/><stop offset="100%" stop-color="#fff"/></linearGradient><path d="M639.823 539.401c-23.39-8.062-52.043 11.216-52.043 49.829 0 63.048 46.721 68.77 52.384 68.77C681.057 658 720 624.204 720 577.964c0-51.396-44.64-79.865-79.836-79.865 9.749-1.35 52.541 10.55 52.541 69.037 0 38.141-31.953 58.905-52.735 50.033-.478-.177-23.514-9.264-23.514-38.95 0-29.56 23.367-38.818 23.367-38.818z" fill-rule="evenodd" fill="url(#b)"/><path d="M722.948 696.586h1.386v5.124h-1.386q-.882 0-1.365.504t-.483 1.47v7.602q0 3.654-2.016 5.586-2.016 1.932-5.922 1.932h-2.436v-5.124h.756q1.512 0 2.289-.798.777-.798.777-2.31v-6.72q0-2.142.672-3.192.672-1.05 2.142-1.512-1.47-.462-2.142-1.512-.672-1.05-.672-3.192v-6.72q0-1.512-.777-2.31t-2.289-.798h-.756v-5.124h2.436q3.906 0 5.922 1.932 2.016 1.932 2.016 5.586v7.602q0 .966.483 1.47t1.365.504zM588.212 711.16q-2.982 0-5.481-1.113-2.499-1.113-4.095-3.171l3.78-4.536q2.394 3.234 5.46 3.234 4.158 0 4.158-4.872v-13.986h-10.332v-5.46h17.094v19.068q0 5.418-2.688 8.127-2.688 2.709-7.896 2.709zm26.964 0q-3.486 0-6.741-.945-3.255-.945-5.229-2.457l2.31-5.124q1.89 1.386 4.494 2.226 2.604.84 5.208.84 2.898 0 4.284-.861 1.386-.861 1.386-2.289 0-1.05-.819-1.743-.819-.693-2.1-1.113-1.281-.42-3.465-.924-3.36-.798-5.502-1.596t-3.675-2.562q-1.533-1.764-1.533-4.704 0-2.562 1.386-4.641t4.179-3.297q2.793-1.218 6.825-1.218 2.814 0 5.502.672 2.688.672 4.704 1.932l-2.1 5.166q-4.074-2.31-8.148-2.31-2.856 0-4.221.924-1.365.924-1.365 2.436t1.575 2.247q1.575.735 4.809 1.449 3.36.798 5.502 1.596t3.675 2.52q1.533 1.722 1.533 4.662 0 2.52-1.407 4.599t-4.221 3.297q-2.814 1.218-6.846 1.218zm31.374 0q-4.578 0-8.253-1.974t-5.754-5.439q-2.079-3.465-2.079-7.791 0-4.326 2.079-7.791 2.079-3.465 5.754-5.439 3.675-1.974 8.253-1.974t8.232 1.974q3.654 1.974 5.754 5.439 2.1 3.465 2.1 7.791 0 4.326-2.1 7.791-2.1 3.465-5.754 5.439-3.654 1.974-8.232 1.974zm0-5.796q2.604 0 4.704-1.197 2.1-1.197 3.297-3.339t1.197-4.872q0-2.73-1.197-4.872t-3.297-3.339q-2.1-1.197-4.704-1.197-2.604 0-4.704 1.197-2.1 1.197-3.297 3.339t-1.197 4.872q0 2.73 1.197 4.872t3.297 3.339q2.1 1.197 4.704 1.197zm41.454-24.108h6.72v29.4h-5.586l-14.658-17.85v17.85h-6.72v-29.4h5.628l14.616 17.85v-17.85zM562.97 694.444q0 2.142-.672 3.192-.672 1.05-2.142 1.512 1.47.462 2.142 1.512.672 1.05.672 3.192v6.72q0 1.512.777 2.31t2.289.798h.756v5.124h-2.436q-3.906 0-5.922-1.932-2.016-1.932-2.016-5.586v-7.602q0-.966-.483-1.47t-1.365-.504h-1.386v-5.124h1.386q.882 0 1.365-.504t.483-1.47v-7.602q0-3.654 2.016-5.586 2.016-1.932 5.922-1.932h2.436v5.124h-.756q-1.512 0-2.289.798-.777.798-.777 2.31v6.72z" fill="#232323"/></svg>
