<svg xmlns="http://www.w3.org/2000/svg" xmlns:xlink="http://www.w3.org/1999/xlink" style="isolation:isolate" viewBox="773.871 360.954 183.889 179.233" width="183.889pt" height="179.233pt"><path d=" M 810.859 442.024 L 810.859 462.907 L 810.859 462.907 Q 810.859 470.079 814.973 473.314 L 814.973 473.314 L 814.973 473.314 Q 819.086 476.548 827.031 476.689 L 827.031 476.689 L 827.031 486.532 L 827.031 486.532 Q 813.672 486.392 806.359 480.415 L 806.359 480.415 L 806.359 480.415 Q 799.047 474.439 799.047 463.61 L 799.047 463.61 L 799.047 442.306 L 799.047 442.306 Q 799.047 434.993 794.617 431.864 L 794.617 431.864 L 794.617 431.864 Q 790.188 428.735 781.75 428.735 L 781.75 428.735 L 781.75 418.821 L 781.75 418.821 Q 790.891 418.681 794.969 415.446 L 794.969 415.446 L 794.969 415.446 Q 799.047 412.212 799.047 405.462 L 799.047 405.462 L 799.047 383.946 L 799.047 383.946 Q 799.047 373.048 806.641 367.001 L 806.641 367.001 L 806.641 367.001 Q 814.234 360.954 827.031 360.954 L 827.031 360.954 L 827.031 370.728 L 827.031 370.728 Q 810.859 371.149 810.859 384.72 L 810.859 384.72 L 810.859 405.462 L 810.859 405.462 Q 810.859 420.579 795.18 423.321 L 795.18 423.321 L 795.18 424.165 L 795.18 424.165 Q 810.859 426.907 810.859 442.024 L 810.859 442.024 L 810.859 442.024 Z " fill="rgb(0,0,0)"/><path d=" M 939.664 424.165 L 939.664 423.321 L 939.664 423.321 Q 923.984 420.579 923.984 405.462 L 923.984 405.462 L 923.984 384.72 L 923.984 384.72 Q 923.984 371.149 908.024 370.728 L 908.024 370.728 L 908.024 360.954 L 908.024 360.954 Q 920.961 360.954 928.379 367.071 L 928.379 367.071 L 928.379 367.071 Q 935.797 373.189 935.797 383.946 L 935.797 383.946 L 935.797 405.462 L 935.797 405.462 Q 935.797 412.282 939.945 415.481 L 939.945 415.481 L 939.945 415.481 Q 944.094 418.681 953.234 418.821 L 953.234 418.821 L 953.234 428.735 L 953.234 428.735 Q 944.656 428.735 940.227 431.864 L 940.227 431.864 L 940.227 431.864 Q 935.797 434.993 935.797 442.306 L 935.797 442.306 L 935.797 463.61 L 935.797 463.61 Q 935.797 474.368 928.59 480.38 L 928.59 480.38 L 928.59 480.38 Q 921.383 486.392 908.024 486.532 L 908.024 486.532 L 908.024 476.689 L 908.024 476.689 Q 915.828 476.548 919.906 473.314 L 919.906 473.314 L 919.906 473.314 Q 923.984 470.079 923.984 462.907 L 923.984 462.907 L 923.984 442.024 L 923.984 442.024 Q 923.984 434.009 927.852 429.79 L 927.852 429.79 L 927.852 429.79 Q 931.719 425.571 939.664 424.165 L 939.664 424.165 L 939.664 424.165 Z " fill="rgb(0,0,0)"/><g><g><path d=" M 900.45 437.837 C 899.814 437.5 899.166 437.213 898.514 436.958 L 898.98 436.92 C 898.98 436.92 894.829 435.082 894.466 421.74 C 894.107 408.396 898.423 406.12 898.423 406.12 L 897.803 406.147 C 901.064 404.474 903.869 401.831 905.72 398.343 C 910.543 389.271 907.092 378.002 898.018 373.178 C 888.94 368.36 877.674 371.803 872.854 380.884 C 870.872 384.609 870.309 388.701 870.935 392.567 L 870.723 392.241 C 870.723 392.241 871.816 397.083 860.465 404.129 C 849.116 411.179 843.996 407.669 843.996 407.669 L 844.322 408.149 C 843.997 407.948 843.686 407.743 843.347 407.566 C 834.269 402.742 823 406.189 818.178 415.267 C 813.358 424.344 816.806 435.608 825.881 440.434 C 832.647 444.025 840.625 443.024 846.246 438.52 L 846.124 438.756 C 846.124 438.756 850.256 435.357 862.164 441.75 C 871.564 446.794 872.96 451.738 873.139 453.596 C 872.893 460.489 876.486 467.25 882.986 470.703 C 892.061 475.528 903.33 472.078 908.15 463.002 C 912.974 453.927 909.528 442.657 900.45 437.837 L 900.45 437.837 Z  M 879.466 440.283 C 877.962 440.815 873.665 441.404 864.619 436.553 C 854.822 431.293 853.368 426.899 853.155 425.58 C 853.294 423.98 853.205 422.383 852.932 420.825 L 852.992 420.915 C 852.992 420.915 852.194 416.641 863.404 409.68 C 873.437 403.452 877.998 404.691 878.847 405.016 C 879.393 405.387 879.959 405.733 880.553 406.049 C 881.682 406.649 882.846 407.119 884.025 407.467 C 885.405 408.781 887.945 412.512 888.209 422.321 C 888.479 432.204 885.575 436.015 883.992 437.363 C 882.362 438.101 880.836 439.086 879.466 440.283 Z " fill="rgb(12,71,156)"/><g><path d=" M 878.239 379.101 C 872.824 385.024 872.71 393.737 877.927 398.667 C 875.348 396.184 875.404 391.016 878.01 386.07 C 878.345 385.627 879.316 384.58 880.735 385.056 C 880.878 385.105 880.972 385.118 881.027 385.109 C 881.348 385.178 881.677 385.219 882.017 385.204 C 884.172 385.106 885.839 383.283 885.742 381.127 C 885.698 380.16 885.297 379.304 884.677 378.647 C 889.679 375.37 895.419 374.995 897.771 377.143 L 897.861 377.149 C 892.488 372.243 883.705 373.12 878.239 379.101 Z " fill="rgb(255,255,255)"/></g><g><path d=" M 823.632 433.846 C 823.586 433.799 823.539 433.744 823.491 433.698 C 823.521 433.729 823.55 433.767 823.586 433.8 L 823.632 433.846 Z " fill="rgb(255,255,255)"/><path d=" M 823.805 414.131 C 818.389 420.055 818.276 428.766 823.492 433.697 C 820.914 431.213 820.969 426.045 823.575 421.099 C 823.911 420.655 824.883 419.609 826.302 420.085 C 826.443 420.134 826.538 420.146 826.594 420.139 C 826.915 420.208 827.245 420.249 827.584 420.234 C 829.74 420.135 831.406 418.312 831.309 416.158 C 831.264 415.191 830.864 414.334 830.246 413.678 C 835.245 410.402 840.986 410.024 843.338 412.173 L 843.427 412.181 C 838.054 407.272 829.269 408.148 823.805 414.131 Z " fill="rgb(255,255,255)"/></g><g><path d=" M 881.256 463.505 C 881.209 463.457 881.162 463.403 881.115 463.357 C 881.144 463.388 881.174 463.426 881.209 463.458 L 881.256 463.505 L 881.256 463.505 Z " fill="rgb(255,255,255)"/><path d=" M 881.428 443.787 C 876.012 449.713 875.899 458.426 881.115 463.356 C 878.535 460.873 878.592 455.703 881.197 450.759 C 881.533 450.314 882.504 449.269 883.924 449.745 C 884.067 449.792 884.159 449.806 884.216 449.798 C 884.536 449.867 884.867 449.908 885.206 449.894 C 887.36 449.794 889.026 447.97 888.929 445.814 C 888.885 444.848 888.484 443.992 887.866 443.335 C 892.866 440.06 898.605 439.683 900.959 441.831 L 901.047 441.838 C 895.677 436.931 886.891 437.808 881.428 443.787 L 881.428 443.787 Z " fill="rgb(255,255,255)"/></g></g></g><path d=" M 788.747 529.904 L 788.747 507.756 L 795.338 507.756 L 795.338 529.904 L 795.338 529.904 Q 795.338 532.958 793.987 535.299 L 793.987 535.299 L 793.987 535.299 Q 792.636 537.639 790.175 538.913 L 790.175 538.913 L 790.175 538.913 Q 787.714 540.188 784.616 540.188 L 784.616 540.188 L 784.616 540.188 Q 779.54 540.188 776.706 537.606 L 776.706 537.606 L 776.706 537.606 Q 773.871 535.024 773.871 530.3 L 773.871 530.3 L 780.507 530.3 L 780.507 530.3 Q 780.507 532.651 781.496 533.771 L 781.496 533.771 L 781.496 533.771 Q 782.484 534.892 784.616 534.892 L 784.616 534.892 L 784.616 534.892 Q 786.505 534.892 787.626 533.596 L 787.626 533.596 L 787.626 533.596 Q 788.747 532.299 788.747 529.904 L 788.747 529.904 L 788.747 529.904 Z  M 817.575 531.354 L 817.575 531.354 L 817.575 531.354 Q 817.575 529.487 816.256 528.487 L 816.256 528.487 L 816.256 528.487 Q 814.938 527.487 811.51 526.378 L 811.51 526.378 L 811.51 526.378 Q 808.083 525.268 806.083 524.191 L 806.083 524.191 L 806.083 524.191 Q 800.634 521.247 800.634 516.259 L 800.634 516.259 L 800.634 516.259 Q 800.634 513.667 802.095 511.634 L 802.095 511.634 L 802.095 511.634 Q 803.556 509.602 806.292 508.459 L 806.292 508.459 L 806.292 508.459 Q 809.027 507.316 812.433 507.316 L 812.433 507.316 L 812.433 507.316 Q 815.861 507.316 818.542 508.558 L 818.542 508.558 L 818.542 508.558 Q 821.222 509.799 822.705 512.063 L 822.705 512.063 L 822.705 512.063 Q 824.189 514.326 824.189 517.204 L 824.189 517.204 L 817.597 517.204 L 817.597 517.204 Q 817.597 515.007 816.212 513.787 L 816.212 513.787 L 816.212 513.787 Q 814.828 512.568 812.323 512.568 L 812.323 512.568 L 812.323 512.568 Q 809.906 512.568 808.566 513.59 L 808.566 513.59 L 808.566 513.59 Q 807.226 514.611 807.226 516.281 L 807.226 516.281 L 807.226 516.281 Q 807.226 517.841 808.797 518.896 L 808.797 518.896 L 808.797 518.896 Q 810.368 519.951 813.422 520.874 L 813.422 520.874 L 813.422 520.874 Q 819.047 522.565 821.618 525.07 L 821.618 525.07 L 821.618 525.07 Q 824.189 527.575 824.189 531.311 L 824.189 531.311 L 824.189 531.311 Q 824.189 535.463 821.046 537.825 L 821.046 537.825 L 821.046 537.825 Q 817.904 540.188 812.587 540.188 L 812.587 540.188 L 812.587 540.188 Q 808.896 540.188 805.863 538.836 L 805.863 538.836 L 805.863 538.836 Q 802.831 537.485 801.238 535.134 L 801.238 535.134 L 801.238 535.134 Q 799.645 532.783 799.645 529.685 L 799.645 529.685 L 806.259 529.685 L 806.259 529.685 Q 806.259 534.98 812.587 534.98 L 812.587 534.98 L 812.587 534.98 Q 814.938 534.98 816.256 534.024 L 816.256 534.024 L 816.256 534.024 Q 817.575 533.068 817.575 531.354 Z  M 854.928 523.049 L 854.928 524.477 L 854.928 524.477 Q 854.928 529.201 853.258 532.761 L 853.258 532.761 L 853.258 532.761 Q 851.588 536.32 848.479 538.254 L 848.479 538.254 L 848.479 538.254 Q 845.37 540.188 841.349 540.188 L 841.349 540.188 L 841.349 540.188 Q 837.372 540.188 834.252 538.276 L 834.252 538.276 L 834.252 538.276 Q 831.132 536.364 829.418 532.816 L 829.418 532.816 L 829.418 532.816 Q 827.704 529.267 827.682 524.653 L 827.682 524.653 L 827.682 523.071 L 827.682 523.071 Q 827.682 518.347 829.385 514.754 L 829.385 514.754 L 829.385 514.754 Q 831.088 511.162 834.197 509.239 L 834.197 509.239 L 834.197 509.239 Q 837.306 507.316 841.305 507.316 L 841.305 507.316 L 841.305 507.316 Q 845.304 507.316 848.413 509.239 L 848.413 509.239 L 848.413 509.239 Q 851.523 511.162 853.225 514.754 L 853.225 514.754 L 853.225 514.754 Q 854.928 518.347 854.928 523.049 L 854.928 523.049 L 854.928 523.049 Z  M 848.249 524.587 L 848.249 523.027 L 848.249 523.027 Q 848.249 517.995 846.447 515.38 L 846.447 515.38 L 846.447 515.38 Q 844.645 512.766 841.305 512.766 L 841.305 512.766 L 841.305 512.766 Q 837.987 512.766 836.186 515.347 L 836.186 515.347 L 836.186 515.347 Q 834.384 517.929 834.362 522.917 L 834.362 522.917 L 834.362 524.477 L 834.362 524.477 Q 834.362 529.377 836.164 532.08 L 836.164 532.08 L 836.164 532.08 Q 837.965 534.782 841.349 534.782 L 841.349 534.782 L 841.349 534.782 Q 844.667 534.782 846.447 532.178 L 846.447 532.178 L 846.447 532.178 Q 848.227 529.575 848.249 524.587 L 848.249 524.587 L 848.249 524.587 Z  M 885.734 507.756 L 885.734 539.748 L 879.142 539.748 L 866.31 518.698 L 866.31 539.748 L 859.718 539.748 L 859.718 507.756 L 866.31 507.756 L 879.164 528.85 L 879.164 507.756 L 885.734 507.756 L 885.734 507.756 Z  M 903.422 523.488 L 903.422 528.608 L 891.051 528.608 L 891.051 523.488 L 903.422 523.488 L 903.422 523.488 Z  M 915.529 507.756 L 915.529 534.453 L 929.525 534.453 L 929.525 539.748 L 908.937 539.748 L 908.937 507.756 L 915.529 507.756 L 915.529 507.756 Z  M 943.214 539.748 L 933.305 539.748 L 933.305 507.756 L 943.149 507.756 L 943.149 507.756 Q 947.367 507.756 950.696 509.656 L 950.696 509.656 L 950.696 509.656 Q 954.025 511.557 955.893 515.062 L 955.893 515.062 L 955.893 515.062 Q 957.76 518.566 957.76 523.027 L 957.76 523.027 L 957.76 524.499 L 957.76 524.499 Q 957.76 528.959 955.926 532.431 L 955.926 532.431 L 955.926 532.431 Q 954.091 535.903 950.751 537.814 L 950.751 537.814 L 950.751 537.814 Q 947.411 539.726 943.214 539.748 L 943.214 539.748 L 943.214 539.748 Z  M 943.149 513.095 L 939.897 513.095 L 939.897 534.453 L 943.083 534.453 L 943.083 534.453 Q 946.95 534.453 948.993 531.926 L 948.993 531.926 L 948.993 531.926 Q 951.037 529.399 951.081 524.697 L 951.081 524.697 L 951.081 523.005 L 951.081 523.005 Q 951.081 518.127 949.059 515.611 L 949.059 515.611 L 949.059 515.611 Q 947.038 513.095 943.149 513.095 L 943.149 513.095 L 943.149 513.095 Z " fill="rgb(0,0,0)"/></svg>
