<svg xmlns="http://www.w3.org/2000/svg" style="isolation:isolate" viewBox="565 540 19.997 14.028" width="26.663" height="18.704"><defs><clipPath id="a"><path d="M565 540h19.997v14.028H565z"/></clipPath></defs><g clip-path="url(#a)"><path d="M581.885 546.128a4 4 0 01-.88 7.9h-11a5 5 0 01-1-9.9v-.1a3.001 3.001 0 014.52-2.59 4.981 4.981 0 018.48 3.59c0 .38-.04.74-.12 1.1zm-5.856 2.021l2.083-2.083-1.038-1.038-2.076 2.083-2.083-2.083-1.037 1.038 2.083 2.083-2.083 2.083 1.037 1.037 2.083-2.083 2.083 2.083 1.038-1.037-2.083-2.083h-.007z" fill-rule="evenodd"/></g></svg>
