<svg xmlns="http://www.w3.org/2000/svg" style="isolation:isolate" viewBox="-408.5 185 121.259 121.365" width="161.679" height="161.82"><path d="M-353.93 290.298h3.472v16.027h-3.472v-16.027zm-32.257.201h3.513v15.826h-3.513v-15.826zm-5.813-4.844h15.139v3.472H-392v-3.472zm14.816 8.599l6.217 6.177-2.462 2.462-6.217-6.176 2.462-2.463zm20.791-1.453l-13.605 13.564-2.462-2.462 13.564-13.605 2.503 2.503zm15.22.323v3.471q1.292 0 2.221.929.928.929.928 2.22 0 1.292-.928 2.201-.929.908-2.221.908t-2.2-.908q-.908-.909-.908-2.201h-3.472q0 2.705 1.938 4.643 1.938 1.938 4.642 1.938 2.746 0 4.683-1.938 1.938-1.938 1.938-4.643 0-2.745-1.938-4.683-1.937-1.937-4.683-1.937zm-1.332 3.471h.04v-3.471h-.04q-.807 0-1.393-.586-.585-.585-.585-1.393 0-.847.585-1.433.586-.585 1.393-.585h1.131v-3.472h-1.131q-2.261 0-3.855 1.615-1.595 1.615-1.595 3.875 0 2.261 1.595 3.856 1.594 1.594 3.855 1.594zm25.394-.565q0 .808-.566 1.373-.565.565-1.372.565-.808 0-1.373-.565t-.565-1.373q0-.807.565-1.372.565-.566 1.373-.566.807 0 1.372.566.566.565.566 1.372zm8.72.646q-.242 2.624-2.2 4.421-1.958 1.796-4.623 1.796h-7.63q-2.705 0-4.663-1.796-1.958-1.797-2.2-4.421h-3.391q.121 2.019.989 3.775.868 1.756 2.24 3.068 1.373 1.312 3.19 2.059 1.816.747 3.875.747h7.509q2.059 0 3.876-.747 1.817-.747 3.209-2.059 1.393-1.312 2.241-3.068.848-1.756.969-3.775h-3.391zm-21.316-1.372q.282-2.584 2.22-4.381 1.938-1.796 4.643-1.796l.02.02.02.02h7.509l.021-.02.06-.02q2.665 0 4.623 1.796 1.958 1.797 2.2 4.381H-305q-.121-2.019-.969-3.775-.848-1.756-2.241-3.068-1.392-1.312-3.209-2.059-1.817-.747-3.876-.747h-7.509q-2.059 0-3.875.747-1.817.747-3.19 2.059-1.372 1.312-2.24 3.068-.868 1.756-.989 3.775h3.391zm-9.807-65.809q-.04-3.483-2.506-5.893-2.466-2.409-5.948-2.37-3.483.04-5.892 2.506-2.41 2.466-2.37 5.948.039 3.483 2.505 5.892 2.466 2.41 5.948 2.37 3.483-.039 5.893-2.505 2.409-2.466 2.37-5.948zm37.579-3.216q-1.174-11.307-9.708-18.959-8.534-7.652-20.026-7.52l-.261.003-.087.001-32.388.37-.087.001-.087.001q-11.666.134-20.023 7.979-8.356 7.845-9.271 19.175l-14.627.168q.597-8.715 4.167-16.331t9.513-13.344q5.942-5.728 13.741-9.039 7.799-3.311 16.505-3.41l32.387-.371q8.881-.101 16.753 3.03 7.873 3.132 13.858 8.723 5.985 5.592 9.815 13.123 3.83 7.532 4.452 16.232l-14.626.168zm-91.871 6.971q1.347 11.131 9.879 18.696 8.533 7.564 20.025 7.433l.087-.001.087-.001 32.388-.37.087-.001.261-.003q11.492-.132 19.763-7.889 8.27-7.757 9.362-18.915l14.626-.167q-.423 8.712-4.08 16.329-3.657 7.617-9.512 13.344-5.856 5.727-13.655 9.038-7.798 3.311-16.679 3.413l-32.387.37q-8.707.1-16.579-3.032-7.873-3.132-13.945-8.722-6.072-5.591-9.815-13.123-3.743-7.533-4.539-16.231l14.626-.168z" fill-rule="evenodd" fill="#F00007"/></svg>
